<?xml version="1.0" standalone="no"?>
<!DOCTYPE svg PUBLIC "-//W3C//DTD SVG 20010904//EN"
 "http://www.w3.org/TR/2001/REC-SVG-20010904/DTD/svg10.dtd">
<svg version="1.0" xmlns="http://www.w3.org/2000/svg"
 width="363.000000pt" height="363.000000pt" viewBox="0 0 363.000000 363.000000"
 preserveAspectRatio="xMidYMid meet">
<metadata>
Created by potrace 1.14, written by Peter Selinger 2001-2017
</metadata>
<g transform="translate(0.000000,363.000000) scale(0.100000,-0.100000)"
fill="#000000" stroke="none">
<path d="M1681 2714 c-212 -159 -502 -601 -866 -1319 -109 -215 -177 -382
-194 -477 -9 -50 4 -84 45 -119 19 -17 153 -73 159 -67 2 2 10 46 19 98 46
268 199 642 424 1040 97 171 269 413 361 508 51 53 64 62 56 40 -2 -7 -6 -26
-8 -43 -3 -16 -25 -113 -50 -215 -39 -159 -50 -204 -63 -265 -15 -72 -44 -232
-49 -274 -4 -30 -8 -61 -10 -70 -8 -43 -23 -202 -31 -316 -2 -43 -6 -294 -5
-362 1 -39 4 -44 44 -67 88 -51 262 -92 272 -64 2 7 6 38 9 68 2 30 5 55 6 55
1 0 3 11 5 25 38 266 237 756 453 1115 116 193 281 392 361 434 23 13 24 13
17 -25 -4 -22 -31 -138 -61 -259 -30 -121 -57 -236 -60 -255 -3 -19 -10 -53
-15 -75 -5 -22 -11 -58 -14 -80 -4 -22 -13 -78 -21 -125 -8 -47 -17 -116 -20
-155 -4 -38 -8 -81 -10 -95 -14 -95 -23 -490 -11 -526 4 -14 30 -32 74 -52 63
-28 85 -35 155 -47 15 -3 38 -7 52 -9 15 -3 25 0 25 7 -2 71 10 535 14 577 11
110 15 153 21 194 3 22 10 75 16 116 5 41 14 98 19 125 5 28 12 66 15 85 31
191 133 542 200 685 26 57 34 84 27 95 -13 21 -162 96 -231 116 -115 34 -113
34 -194 -48 -165 -168 -407 -518 -621 -898 -49 -87 -172 -332 -201 -400 -27
-61 -30 -54 -15 35 9 57 13 74 25 135 2 14 7 36 9 50 42 234 183 737 258 919
23 54 28 78 21 90 -23 36 -268 141 -330 141 -11 0 -49 -21 -82 -46z"/>
</g>
</svg>
